<svg width="400" height="400" viewBox="0 0 400 400" xmlns="http://www.w3.org/2000/svg">
  <rect width="100%" height="100%" fill="#1a2b3c"/>

  <rect x="150" y="100" width="100" height="150" rx="10" ry="10" fill="#2d3f50" stroke="#4a6b7c" stroke-width="2"/> <rect x="170" y="120" width="60" height="20" rx="5" ry="5" fill="#4a6b7c"/> <rect x="180" y="125" width="20" height="10" fill="#00ff00"/> <rect x="200" y="125" width="20" height="10" fill="#00ff00"/> <rect x="180" y="140" width="40" height="5" fill="#00bfff"/> <rect x="130" y="150" width="20" height="60" rx="5" ry="5" fill="#2d3f50" stroke="#4a6b7c" stroke-width="2"/> <rect x="250" y="150" width="20" height="60" rx="5" ry="5" fill="#2d3f50" stroke="#4a6b7c" stroke-width="2"/> <rect x="160" y="250" width="30" height="60" rx="5" ry="5" fill="#2d3f50" stroke="#4a6b7c" stroke-width="2"/> <rect x="210" y="250" width="30" height="60" rx="5" ry="5" fill="#2d3f50" stroke="#4a6b7c" stroke-width="2"/> <rect x="160" y="180" width="80" height="50" rx="5" ry="5" fill="#1a2b3c" stroke="#4a6b7c" stroke-width="1"/>
  <circle cx="170" cy="190" r="3" fill="#00bfff"/>
  <rect x="180" y="188" width="50" height="5" fill="#00bfff"/>
  <circle cx="170" cy="200" r="3" fill="#ff0000"/>
  <rect x="180" y="198" width="50" height="5" fill="#ff0000"/>
  <circle cx="170" cy="210" r="3" fill="#00ff00"/>
  <rect x="180" y="208" width="50" height="5" fill="#00ff00"/>

  <path d="M120,280 C150,260 250,260 280,280 C310,300 210,300 180,280" fill="none" stroke="#00bfff" stroke-dasharray="5,5" stroke-width="2"/>
  <path d="M120,285 C150,265 250,265 280,285 C310,305 210,305 180,285" fill="none" stroke="#00ff00" stroke-dasharray="5,5" stroke-width="2"/>


  <g id="leftWheel" transform="translate(120, 160)">
    <circle cx="0" cy="0" r="20" fill="none" stroke="#00bfff" stroke-width="2"/>
    <circle cx="0" cy="0" r="10" fill="none" stroke="#00ff00" stroke-width="2"/>
    <line x1="-15" y1="0" x2="15" y2="0" stroke="#00bfff" stroke-width="2"/>
    <line x1="0" y1="-15" x2="0" y2="15" stroke="#00bfff" stroke-width="2"/>
    <animateTransform
      attributeName="transform"
      attributeType="XML"
      type="rotate"
      from="0 0 0"
      to="360 0 0"
      dur="3s"
      repeatCount="indefinite"/>
  </g>

  <g id="rightWheel" transform="translate(290, 120)">
    <circle cx="0" cy="0" r="20" fill="none" stroke="#00ff00" stroke-width="2"/>
    <circle cx="0" cy="0" r="10" fill="none" stroke="#00bfff" stroke-width="2"/>
    <line x1="-15" y1="0" x2="15" y2="0" stroke="#00ff00" stroke-width="2"/>
    <line x1="0" y1="-15" x2="0" y2="15" stroke="#00ff00" stroke-width="2"/>
    <animateTransform
      attributeName="transform"
      attributeType="XML"
      type="rotate"
      from="0 0 0"
      to="360 0 0"
      dur="3s"
      repeatCount="indefinite"/>
  </g>

  <circle cx="200" cy="80" r="5" fill="#00bfff"/>

</svg>